<svg width="399" height="159" viewBox="0 0 399 159" fill="none" xmlns="http://www.w3.org/2000/svg">
<g clip-path="url(#clip0_42_257)">
<path d="M191.001 75.5919C190.174 75.5919 189.139 75.4161 187.898 75.0646C186.716 74.7634 185.652 74.186 184.707 73.3324C183.82 72.4788 183.377 71.2235 183.377 69.5666C183.377 68.1105 183.731 66.2025 184.441 63.8426C185.209 61.4827 186.155 58.8466 187.278 55.9344C188.401 52.972 189.523 49.8841 190.646 46.6706C191.769 43.4069 192.685 40.1432 193.395 36.8795C194.163 33.6159 194.547 30.4777 194.547 27.4651C194.547 25.6073 194.459 23.875 194.281 22.2683C194.163 20.6615 193.72 19.3812 192.951 18.4272C192.242 17.423 191.001 16.9209 189.228 16.9209C187.573 16.9209 186.155 17.3476 184.973 18.2012C183.85 19.0046 182.904 20.059 182.136 21.3645C181.426 22.67 180.894 24.0507 180.54 25.5069C180.244 26.963 180.097 28.3186 180.097 29.5739C180.097 30.3773 180.156 31.1304 180.274 31.8334C180.451 32.4861 180.658 33.0886 180.894 33.641C178.589 33.641 176.964 33.1137 176.018 32.0593C175.073 30.9547 174.6 29.6743 174.6 28.2182C174.6 26.6617 175.014 25.1052 175.841 23.5486C176.728 21.9921 177.91 20.5611 179.387 19.2556C180.924 17.9 182.668 16.8204 184.618 16.0171C186.568 15.2137 188.637 14.812 190.824 14.812C194.488 14.812 197.207 16.0422 198.98 18.5025C200.812 20.9126 201.728 24.1512 201.728 28.2182C201.728 31.1304 201.344 34.1933 200.576 37.4067C199.807 40.57 198.862 43.7333 197.739 46.8965C196.616 50.0598 195.463 53.0975 194.281 56.0097C193.158 58.922 192.213 61.6082 191.444 64.0685C190.676 66.5289 190.292 68.6126 190.292 70.3197C190.292 71.1733 190.44 71.8763 190.735 72.4286C191.09 72.9809 191.769 73.2571 192.774 73.2571C194.429 73.2571 196.35 72.529 198.537 71.0729C200.724 69.667 202.969 67.7339 205.274 65.2736C207.639 62.7631 209.914 59.9513 212.101 56.8382C214.347 53.7252 216.356 50.4866 218.129 47.1225C219.902 43.7082 221.321 40.3692 222.385 37.1055C223.449 33.8418 223.981 30.8292 223.981 28.0676C223.981 25.5571 223.537 23.7244 222.651 22.5695C221.764 21.3645 220.582 20.5862 219.105 20.2347C219.932 19.0297 220.789 18.151 221.676 17.5987C222.621 17.0464 223.478 16.7702 224.247 16.7702C225.488 16.7702 226.699 17.4481 227.881 18.8037C229.063 20.1594 229.654 22.2683 229.654 25.1303C229.654 27.8919 229.034 31.03 227.793 34.5447C226.611 38.0595 224.985 41.7249 222.917 45.5409C220.848 49.3066 218.484 52.972 215.824 56.537C213.165 60.1019 210.387 63.3154 207.491 66.1774C204.595 69.0394 201.728 71.324 198.891 73.0311C196.054 74.7383 193.424 75.5919 191.001 75.5919ZM235.376 72.3533C231.771 72.3533 229.052 71.4997 227.22 69.7925C225.447 68.1356 224.56 66.077 224.56 63.6166C224.56 61.3572 225.21 58.9722 226.511 56.4616C227.87 53.9511 229.643 51.5912 231.83 49.382C234.076 47.1727 236.529 45.3902 239.188 44.0345C241.848 42.6286 244.478 41.9257 247.078 41.9257C248.437 41.9257 249.678 42.227 250.801 42.8295C251.983 43.432 252.574 44.6622 252.574 46.52C252.574 48.428 251.894 50.2355 250.535 51.9427C249.235 53.5996 247.491 55.0809 245.305 56.3863C243.178 57.6918 240.814 58.7713 238.213 59.6249C235.672 60.4283 233.13 60.9304 230.589 61.1312C230.471 61.6333 230.382 62.1103 230.323 62.5622C230.264 63.0141 230.234 63.4409 230.234 63.8426C230.234 64.5957 230.323 65.3489 230.5 66.1021C230.737 66.8552 231.121 67.5582 231.653 68.2109C232.185 68.8134 232.894 69.2904 233.78 69.6419C234.726 69.9934 235.878 70.1691 237.238 70.1691C239.779 70.1691 242.291 69.5666 244.773 68.3615C247.255 67.1063 249.56 65.4744 251.688 63.466C253.815 61.4576 255.618 59.2483 257.095 56.8382L258.159 57.5161C256.564 60.5287 254.525 63.1396 252.042 65.3489C249.619 67.5582 246.959 69.2653 244.064 70.4704C241.227 71.7256 238.331 72.3533 235.376 72.3533ZM231.032 59.7002C232.628 59.2483 234.43 58.5956 236.44 57.742C238.449 56.8382 240.37 55.7838 242.203 54.5787C244.094 53.3737 245.63 52.0431 246.812 50.587C248.053 49.1309 248.673 47.5995 248.673 45.9927C248.673 45.4404 248.555 45.0136 248.319 44.7124C248.082 44.4111 247.58 44.2605 246.812 44.2605C245.394 44.2605 243.887 44.7375 242.291 45.6915C240.695 46.5953 239.159 47.8003 237.681 49.3066C236.204 50.813 234.874 52.4699 233.692 54.2775C232.51 56.0851 231.623 57.8926 231.032 59.7002ZM262.86 72.5039C260.319 72.5039 258.369 71.8763 257.009 70.621C255.65 69.3657 254.97 67.508 254.97 65.0476C254.97 62.8384 255.443 60.127 256.389 56.9135C257.393 53.6499 258.635 50.3109 260.112 46.8965C259.521 46.7961 258.96 46.7208 258.428 46.6706C257.896 46.5702 257.393 46.4446 256.921 46.294V44.9383C257.393 44.9885 257.955 45.0387 258.605 45.089C259.255 45.1392 259.994 45.1894 260.821 45.2396C262.063 42.5282 263.392 39.9173 264.811 37.4067C266.229 34.846 267.618 32.5865 268.978 30.6283C270.396 28.6199 271.726 27.0383 272.967 25.8834C274.267 24.6784 275.361 24.0759 276.247 24.0759C276.72 24.0759 277.134 24.2265 277.488 24.5277C277.902 24.7788 278.109 25.1805 278.109 25.7328C278.109 26.5864 277.489 27.9923 276.247 29.9505C275.006 31.8585 273.469 34.1431 271.637 36.8042C269.805 39.4654 268.032 42.3525 266.318 45.4655C266.85 45.4655 267.382 45.4655 267.914 45.4655C268.505 45.4655 269.066 45.4655 269.598 45.4655C271.549 45.4655 273.588 45.4404 275.715 45.3902C277.902 45.34 280.089 45.2145 282.276 45.0136V46.3693C279.025 46.6706 276.1 46.8965 273.499 47.0472C270.958 47.1978 268.682 47.2731 266.673 47.2731C266.436 47.2731 266.2 47.2731 265.963 47.2731C265.786 47.2731 265.579 47.2731 265.343 47.2731C263.983 49.9343 262.831 52.6707 261.885 55.4825C260.94 58.2943 260.467 61.0308 260.467 63.692C260.467 65.851 260.851 67.4075 261.619 68.3615C262.388 69.2653 263.658 69.7172 265.431 69.7172C268.505 69.7172 271.519 68.5624 274.474 66.2527C277.429 63.943 280.03 60.8049 282.276 56.8382L283.428 57.5914C282.01 60.4032 280.207 62.9388 278.02 65.1983C275.893 67.4577 273.529 69.2402 270.928 70.5457C268.328 71.8512 265.638 72.5039 262.86 72.5039Z" fill="#FCFCFC"/>
<path d="M190.381 144.631C187.189 144.631 184.175 144.129 181.338 143.125C178.501 142.171 176.196 140.69 174.423 138.681C172.709 136.673 171.852 134.163 171.852 131.15C171.852 128.539 172.443 126.505 173.625 125.049C174.866 123.593 176.373 122.564 178.147 121.961C179.92 121.359 181.604 121.058 183.2 121.058C181.604 122.514 180.392 124.12 179.565 125.878C178.738 127.635 178.324 129.393 178.324 131.15C178.324 133.008 178.797 134.74 179.742 136.347C180.747 137.953 182.254 139.234 184.264 140.188C186.273 141.192 188.815 141.694 191.888 141.694C194.548 141.694 197.148 141.267 199.69 140.414C202.231 139.61 204.3 138.405 205.895 136.799C207.55 135.142 208.378 133.108 208.378 130.698C208.378 128.539 207.728 126.681 206.427 125.125C205.127 123.568 203.443 122.187 201.374 120.982C199.365 119.777 197.207 118.622 194.902 117.518C192.597 116.413 190.41 115.258 188.342 114.053C186.332 112.798 184.677 111.367 183.377 109.76C182.077 108.153 181.427 106.22 181.427 103.961C181.427 101.852 182.018 99.6428 183.2 97.3331C184.382 95.0234 186.066 92.8392 188.253 90.7806C190.499 88.722 193.159 87.065 196.232 85.8098C199.365 84.5043 202.852 83.8516 206.693 83.8516C210.18 83.8516 212.604 84.5796 213.963 86.0357C215.322 87.4416 216.002 89.2241 216.002 91.3831C216.002 93.1907 215.618 95.1489 214.85 97.2578C214.14 99.3164 213.254 101.3 212.19 103.208C211.126 105.066 210.121 106.647 209.176 107.953C208.112 107.752 207.343 107.375 206.871 106.823C206.457 106.22 206.25 105.517 206.25 104.714C206.25 103.66 206.516 102.455 207.048 101.099C207.58 99.7432 208.171 98.3373 208.821 96.8812C209.53 95.4251 210.151 94.0192 210.683 92.6635C211.215 91.2576 211.481 90.0023 211.481 88.8977C211.481 87.8935 211.126 87.1152 210.417 86.5629C209.708 85.9604 208.407 85.6591 206.516 85.6591C203.738 85.6591 201.167 86.2115 198.803 87.3161C196.439 88.4207 194.37 89.8517 192.597 91.6091C190.824 93.3162 189.435 95.1238 188.43 97.0318C187.485 98.9398 187.012 100.672 187.012 102.229C187.012 104.086 187.633 105.693 188.874 107.049C190.174 108.354 191.829 109.559 193.838 110.664C195.848 111.718 197.976 112.798 200.222 113.903C202.527 114.957 204.684 116.137 206.693 117.442C208.703 118.748 210.328 120.304 211.569 122.112C212.87 123.869 213.52 126.028 213.52 128.589C213.52 131.2 212.84 133.51 211.481 135.518C210.121 137.476 208.289 139.133 205.984 140.489C203.738 141.845 201.256 142.874 198.537 143.577C195.818 144.28 193.1 144.631 190.381 144.631ZM229.489 141.393C225.884 141.393 223.165 140.539 221.333 138.832C219.56 137.175 218.673 135.117 218.673 132.656C218.673 130.397 219.324 128.012 220.624 125.501C221.983 122.991 223.756 120.631 225.943 118.422C228.189 116.212 230.642 114.43 233.301 113.074C235.961 111.668 238.591 110.965 241.192 110.965C242.551 110.965 243.792 111.267 244.915 111.869C246.097 112.472 246.689 113.702 246.689 115.56C246.689 117.468 246.009 119.275 244.649 120.982C243.349 122.639 241.605 124.12 239.419 125.426C237.291 126.731 234.927 127.811 232.326 128.664C229.785 129.468 227.243 129.97 224.702 130.171C224.584 130.673 224.495 131.15 224.436 131.602C224.377 132.054 224.347 132.48 224.347 132.882C224.347 133.635 224.436 134.388 224.613 135.142C224.85 135.895 225.234 136.598 225.766 137.25C226.298 137.853 227.007 138.33 227.894 138.681C228.839 139.033 229.992 139.209 231.351 139.209C233.893 139.209 236.404 138.606 238.887 137.401C241.369 136.146 243.674 134.514 245.802 132.506C247.93 130.497 249.733 128.288 251.21 125.878L252.274 126.556C250.678 129.568 248.639 132.179 246.156 134.388C243.733 136.598 241.074 138.305 238.177 139.51C235.341 140.765 232.444 141.393 229.489 141.393ZM225.145 128.74C226.741 128.288 228.544 127.635 230.553 126.782C232.563 125.878 234.484 124.823 236.316 123.618C238.207 122.413 239.744 121.083 240.926 119.627C242.167 118.17 242.788 116.639 242.788 115.032C242.788 114.48 242.669 114.053 242.433 113.752C242.196 113.451 241.694 113.3 240.926 113.3C239.507 113.3 238 113.777 236.404 114.731C234.809 115.635 233.272 116.84 231.794 118.346C230.317 119.853 228.987 121.509 227.805 123.317C226.623 125.125 225.736 126.932 225.145 128.74ZM264.774 140.037C262.765 140.037 261.169 139.585 259.987 138.681C258.864 137.778 258.303 136.598 258.303 135.142C258.303 133.635 258.716 132.054 259.544 130.397C260.371 128.74 261.169 127.108 261.937 125.501C262.765 123.844 263.179 122.363 263.179 121.058C263.179 119.451 262.617 118.271 261.494 117.518C260.43 116.714 259.337 115.986 258.214 115.334C256.855 118.296 255.436 121.108 253.958 123.769C252.481 126.43 251.269 128.439 250.324 129.794L249.526 128.514C250.353 127.208 251.417 125.3 252.717 122.79C254.077 120.279 255.406 117.417 256.707 114.204C256.116 113.702 255.82 113.099 255.82 112.396C255.82 110.89 256.323 109.66 257.327 108.706C258.332 107.752 259.071 107.275 259.544 107.275C260.194 107.275 260.548 107.526 260.608 108.028C260.726 108.48 260.785 108.831 260.785 109.082C260.785 109.333 260.608 109.836 260.253 110.589C259.957 111.292 259.81 111.718 259.81 111.869C259.81 112.572 260.253 113.225 261.139 113.827C262.085 114.38 263.149 115.032 264.331 115.785C265.513 116.488 266.547 117.367 267.434 118.422C268.38 119.426 268.852 120.731 268.852 122.338C268.852 123.844 268.468 125.376 267.7 126.932C266.991 128.489 266.252 129.97 265.484 131.376C264.774 132.782 264.42 134.012 264.42 135.066C264.42 135.97 264.686 136.573 265.218 136.874C265.75 137.175 266.37 137.326 267.079 137.326C268.498 137.326 269.946 136.949 271.423 136.196C272.96 135.443 274.438 134.489 275.856 133.334C277.275 132.179 278.545 130.974 279.668 129.719C280.791 128.413 281.619 127.208 282.151 126.104L283.303 126.857C282.18 128.966 280.643 131.049 278.693 133.108C276.743 135.117 274.556 136.773 272.133 138.079C269.769 139.384 267.316 140.037 264.774 140.037ZM286.022 141.016C284.19 141.016 282.919 140.238 282.21 138.681C281.5 137.175 281.146 135.192 281.146 132.732C281.146 132.631 281.175 131.853 281.235 130.397C281.294 128.89 281.441 126.38 281.678 122.865C281.796 121.509 281.973 120.581 282.21 120.078C282.446 119.576 283.214 119.325 284.515 119.325C285.519 119.325 286.14 119.501 286.376 119.853C286.672 120.154 286.82 120.781 286.82 121.735C286.82 123.392 286.672 125.351 286.376 127.61C286.14 129.819 286.022 131.903 286.022 133.861C286.022 135.317 286.17 136.397 286.465 137.1C286.761 137.753 287.293 138.079 288.061 138.079C289.125 138.079 290.307 137.577 291.607 136.573C292.907 135.518 294.237 134.162 295.597 132.506C296.956 130.798 298.227 128.991 299.409 127.083C300.65 125.175 301.743 123.342 302.689 121.585C302.807 118.17 303.221 115.911 303.93 114.806C304.698 113.652 305.644 113.074 306.767 113.074C307.89 113.074 308.688 113.426 309.161 114.128C309.693 114.781 309.959 115.384 309.959 115.936C309.959 116.589 309.693 117.267 309.161 117.97C308.688 118.673 308.186 119.627 307.654 120.832C307.122 122.037 306.856 123.769 306.856 126.028C306.856 126.832 306.944 127.685 307.122 128.589C307.299 129.493 307.683 130.246 308.274 130.849C308.865 131.451 309.781 131.752 311.022 131.752C312.264 131.752 313.446 131.351 314.569 130.547C315.751 129.694 316.903 128.238 318.026 126.179L319.179 126.932C317.878 129.443 316.43 131.125 314.835 131.978C313.298 132.832 311.82 133.259 310.402 133.259C308.451 133.259 306.826 132.656 305.526 131.451C304.226 130.246 303.369 128.413 302.955 125.953C301.536 128.413 299.852 130.798 297.902 133.108C296.01 135.368 294.03 137.25 291.962 138.757C289.893 140.263 287.913 141.016 286.022 141.016ZM322.745 140.037C320.44 140.037 318.726 139.41 317.603 138.154C316.48 136.949 315.918 135.468 315.918 133.711C315.918 132.556 316.155 131.1 316.627 129.342C317.159 127.585 317.839 125.752 318.666 123.844C319.494 121.886 320.44 120.053 321.503 118.346C322.626 116.639 323.808 115.258 325.05 114.204C326.291 113.099 327.502 112.547 328.684 112.547C329.216 112.547 329.66 112.698 330.014 112.999C330.428 113.25 330.635 113.652 330.635 114.204C330.635 114.806 330.162 115.785 329.216 117.141C328.33 118.497 327.266 120.053 326.025 121.811C324.784 123.568 323.69 125.426 322.745 127.384C321.858 129.292 321.415 131.125 321.415 132.882C321.415 134.69 321.769 135.895 322.479 136.497C323.188 137.1 324.281 137.401 325.759 137.401C327.768 137.401 329.896 136.548 332.142 134.84C334.447 133.133 336.87 130.146 339.412 125.878L340.209 126.631C338.495 130.949 336.013 134.263 332.762 136.573C329.571 138.882 326.232 140.037 322.745 140.037ZM333.383 105.543C332.437 105.543 331.58 105.342 330.812 104.94C330.103 104.538 329.748 103.911 329.748 103.057C329.748 102.003 330.457 101.099 331.876 100.346C333.354 99.5423 334.802 99.1407 336.22 99.1407C337.107 99.1407 337.816 99.3164 338.348 99.6679C338.88 100.019 339.146 100.622 339.146 101.475C339.146 102.429 338.525 103.358 337.284 104.262C336.102 105.116 334.802 105.543 333.383 105.543ZM347.23 142.297C344.393 142.297 342.029 141.493 340.138 139.887C338.247 138.28 337.301 135.87 337.301 132.656C337.301 130.146 337.863 127.71 338.986 125.351C340.168 122.94 341.704 120.781 343.596 118.873C345.487 116.965 347.585 115.459 349.89 114.354C352.195 113.2 354.471 112.622 356.716 112.622C359.14 112.622 360.795 113.225 361.681 114.43C362.568 115.635 363.011 116.89 363.011 118.196C363.011 119.652 362.597 120.932 361.77 122.037C361.001 123.141 359.938 123.694 358.578 123.694C357.573 123.694 356.716 123.317 356.007 122.564C356.894 122.162 357.662 121.359 358.312 120.154C358.962 118.899 359.287 117.719 359.287 116.614C359.287 116.011 359.14 115.56 358.844 115.258C358.608 114.907 358.105 114.731 357.337 114.731C355.741 114.731 354.086 115.334 352.372 116.539C350.717 117.744 349.151 119.3 347.674 121.208C346.255 123.116 345.073 125.125 344.128 127.233C343.241 129.342 342.798 131.326 342.798 133.183C342.798 134.74 343.241 136.171 344.128 137.476C345.014 138.782 346.728 139.435 349.269 139.435C351.634 139.435 353.998 138.882 356.362 137.778C358.785 136.673 361.031 135.091 363.1 133.033C365.168 130.974 366.823 128.564 368.064 125.802L369.217 126.556C367.857 129.568 365.996 132.28 363.632 134.69C361.267 137.05 358.667 138.907 355.83 140.263C352.993 141.619 350.126 142.297 347.23 142.297ZM375.977 141.393C372.371 141.393 369.653 140.539 367.82 138.832C366.047 137.175 365.161 135.117 365.161 132.656C365.161 130.397 365.811 128.012 367.111 125.501C368.471 122.991 370.244 120.631 372.43 118.422C374.676 116.212 377.129 114.43 379.789 113.074C382.448 111.668 385.079 110.965 387.679 110.965C389.038 110.965 390.28 111.267 391.403 111.869C392.585 112.472 393.176 113.702 393.176 115.56C393.176 117.468 392.496 119.275 391.137 120.982C389.836 122.639 388.093 124.12 385.906 125.426C383.778 126.731 381.414 127.811 378.814 128.664C376.272 129.468 373.731 129.97 371.189 130.171C371.071 130.673 370.982 131.15 370.923 131.602C370.864 132.054 370.835 132.48 370.835 132.882C370.835 133.635 370.923 134.388 371.101 135.142C371.337 135.895 371.721 136.598 372.253 137.25C372.785 137.853 373.494 138.33 374.381 138.681C375.327 139.033 376.479 139.209 377.838 139.209C380.38 139.209 382.892 138.606 385.374 137.401C387.856 136.146 390.161 134.514 392.289 132.506C394.417 130.497 396.219 128.288 397.697 125.878L398.761 126.556C397.165 129.568 395.126 132.179 392.644 134.388C390.22 136.598 387.561 138.305 384.665 139.51C381.828 140.765 378.932 141.393 375.977 141.393ZM371.633 128.74C373.228 128.288 375.031 127.635 377.041 126.782C379.05 125.878 380.971 124.823 382.803 123.618C384.694 122.413 386.231 121.083 387.413 119.627C388.654 118.17 389.275 116.639 389.275 115.032C389.275 114.48 389.157 114.053 388.92 113.752C388.684 113.451 388.181 113.3 387.413 113.3C385.995 113.3 384.488 113.777 382.892 114.731C381.296 115.635 379.759 116.84 378.282 118.346C376.804 119.853 375.474 121.509 374.292 123.317C373.11 125.125 372.224 126.932 371.633 128.74Z" fill="#FCFCFC"/>
<path d="M47.8032 77.408C25.1805 90.3199 20.0773 97.6728 17.0203 121.342M47.8032 77.408C55.4752 68.7603 54.847 64.1345 71.1041 57.533M47.8032 77.408C52.2416 76.2794 53.6108 75.0887 56.9664 74.2699L47.8032 77.408ZM17.0203 121.342C11.8483 112.23 7.16986 112.974 4.70724 115.066C1.93916 116.917 0.390467 133.466 8.30713 138.079C16.2238 142.692 29.8772 141.217 29.8772 141.217M17.0203 121.342L29.8772 141.217M17.0203 121.342C17.8865 123.933 21.5282 133.728 26.3579 138.876M17.0203 121.342L26.3579 138.876M71.1041 57.533C51.9128 50.6858 44.2516 50.7672 48.9404 28.2436C60.0461 36.6241 66.7866 41.2081 79.7232 49.1646M71.1041 57.533L79.7232 49.1646M71.1041 57.533L76.6674 56.487M29.8772 141.217C29.8772 142.943 31.5397 144.335 33.5709 144.31L115.431 143.309V142.263C115.849 132.553 112.602 127.498 104.444 126.573H72.4294C92.4289 128.456 100.039 128.264 92.1304 114.02M29.8772 141.217C28.6686 140.72 27.486 139.904 26.3579 138.876M29.8772 141.217L26.3579 138.876M26.3579 138.876L32.3399 143.309M79.7232 49.1646C70.711 42.2481 65.7801 38.3629 68.6414 31.3817C70.3889 26.2276 73.0636 24.6684 76.0293 23.0133C82.6575 40.6749 86.13 42.0575 89.6678 44.9804M79.7232 49.1646L89.6678 44.9804M79.7232 49.1646C82.1888 47.5466 86.462 45.4187 89.6678 44.9804M89.6678 44.9804C99.702 43.6086 107.242 45.4765 115.431 60.6712C118.904 72.1016 108.146 73.7682 88.4365 72.1778C103.314 74.3339 99.275 86.7792 98.287 88.9146C97.299 91.05 92.8761 92.5934 92.1304 114.02M92.1304 114.02C88.2787 107.082 84.0139 96.0198 61.8914 95.1909" stroke="#FCFCFC" stroke-width="5.78182" stroke-linecap="round"/>
<path d="M98.8309 58.579C100.191 58.579 101.294 57.6423 101.294 56.4869C101.294 55.3314 100.191 54.3948 98.8309 54.3948C97.4708 54.3948 96.3683 55.3314 96.3683 56.4869C96.3683 57.6423 97.4708 58.579 98.8309 58.579Z" fill="#FCFCFC"/>
<path d="M145.295 10.4604V148.539" stroke="#FCFCFC" stroke-width="5.78182" stroke-linecap="round"/>
</g>
<defs>
<clipPath id="clip0_42_257">
<rect width="398.945" height="159" fill="white"/>
</clipPath>
</defs>
</svg>
