<svg width="119" height="130" viewBox="0 0 119 130" fill="none" xmlns="http://www.w3.org/2000/svg">
<path d="M47.8032 59.408C25.1805 72.3199 20.0773 79.6728 17.0203 103.342M47.8032 59.408C55.4752 50.7603 54.847 46.1345 71.1041 39.533M47.8032 59.408C52.2416 58.2794 53.6108 57.0887 56.9664 56.2699L47.8032 59.408ZM17.0203 103.342C11.8483 94.2299 7.16986 94.9738 4.70724 97.0659C1.93916 98.917 0.390467 115.466 8.30713 120.079C16.2238 124.692 29.8772 123.217 29.8772 123.217M17.0203 103.342L29.8772 123.217M17.0203 103.342C17.8865 105.933 21.5282 115.728 26.3579 120.876M17.0203 103.342L26.3579 120.876M71.1041 39.533C51.9128 32.6858 44.2516 32.7672 48.9404 10.2436C60.0461 18.6241 66.7866 23.2081 79.7232 31.1646M71.1041 39.533L79.7232 31.1646M71.1041 39.533L76.6674 38.487M29.8772 123.217C29.8772 124.943 31.5397 126.335 33.5709 126.31L115.431 125.309V124.263C115.849 114.553 112.602 109.498 104.444 108.573H72.4294C92.4289 110.456 100.039 110.264 92.1304 96.0199M29.8772 123.217C28.6686 122.72 27.486 121.904 26.3579 120.876M29.8772 123.217L26.3579 120.876M26.3579 120.876L32.3399 125.309M79.7232 31.1646C70.711 24.2481 65.7801 20.3629 68.6414 13.3817C70.3889 8.22762 73.0636 6.66837 76.0293 5.01331C82.6575 22.6749 86.13 24.0575 89.6678 26.9804M79.7232 31.1646L89.6678 26.9804M79.7232 31.1646C82.1888 29.5466 86.462 27.4187 89.6678 26.9804M89.6678 26.9804C99.702 25.6086 107.242 27.4765 115.431 42.6712C118.904 54.1016 108.146 55.7682 88.4365 54.1778C103.314 56.3339 99.275 68.7792 98.287 70.9146C97.299 73.05 92.8761 74.5934 92.1304 96.0199M92.1304 96.0199C88.2787 89.0825 84.0139 78.0198 61.8914 77.1909" stroke="#FCFCFC" stroke-width="5.78182" stroke-linecap="round"/>
<path d="M98.8309 40.579C100.191 40.579 101.294 39.6423 101.294 38.4869C101.294 37.3314 100.191 36.3948 98.8309 36.3948C97.4708 36.3948 96.3683 37.3314 96.3683 38.4869C96.3683 39.6423 97.4708 40.579 98.8309 40.579Z" fill="#FCFCFC"/>
</svg>
